<?xml version="1.0" encoding="UTF-8" standalone="no"?>
<!-- Created with Inkscape (http://www.inkscape.org/) -->

<svg
   width="210mm"
   height="297mm"
   viewBox="0 0 210 297"
   version="1.1"
   id="svg5"
   inkscape:version="1.3-dev (1:1.2.0-alpha1+devel+202301152004+cbe4ba08e4)"
   sodipodi:docname="drawing.svg"
   xmlns:inkscape="http://www.inkscape.org/namespaces/inkscape"
   xmlns:sodipodi="http://sodipodi.sourceforge.net/DTD/sodipodi-0.dtd"
   xmlns="http://www.w3.org/2000/svg"
   xmlns:svg="http://www.w3.org/2000/svg">
  <sodipodi:namedview
     id="namedview7"
     pagecolor="#ffffff"
     bordercolor="#000000"
     borderopacity="0.25"
     inkscape:showpageshadow="2"
     inkscape:pageopacity="0.0"
     inkscape:pagecheckerboard="0"
     inkscape:deskcolor="#d1d1d1"
     inkscape:document-units="mm"
     showgrid="false"
     inkscape:zoom="1.28"
     inkscape:cx="362.10938"
     inkscape:cy="427.73438"
     inkscape:window-width="2560"
     inkscape:window-height="1563"
     inkscape:window-x="0"
     inkscape:window-y="0"
     inkscape:window-maximized="1"
     inkscape:current-layer="layer1" />
  <defs
     id="defs2" />
  <g
     inkscape:label="Layer 1"
     inkscape:groupmode="layer"
     id="layer1">
    <path
       style="fill:#999999;fill-opacity:0.34902;stroke:#2b0000;stroke-width:1;stroke-dasharray:none"
       d="m 119.38751,216.39215 c -8.13599,3.63086 -16.93093,11.63477 -16.08964,17.79635 0.879,6.4377 5.40297,13.13915 11.28918,15.89036 7.93877,3.71058 19.73707,3.84383 26.20816,-2.06528 4.50542,-4.11415 3.98687,-12.00757 3.08521,-18.04181 -0.61032,-4.08444 -2.20186,-8.6742 -5.56696,-11.06821 -5.18557,-3.68913 -13.11444,-5.10491 -18.92595,-2.51141 z"
       id="path1128-3"
       sodipodi:nodetypes="ssaaaas" />
    <path
       style="fill:#000000;stroke:#1a1a1a;stroke-width:0;stroke-dasharray:none;stroke-dashoffset:0"
       id="path1"
       d="m 177.89241,232.67816 c -0.26844,0.19276 -0.56921,0.34877 -0.80259,0.58706 -0.0546,0.0557 -0.10047,0.11944 -0.1507,0.17916 -0.19513,0.28792 -0.32848,0.6163 -0.2907,0.97021 0.007,0.063 0.0243,0.12442 0.0364,0.18662 0.10185,0.32261 0.30746,0.59847 0.60189,0.7714 0.50652,0.29748 1.0198,0.58328 1.52971,0.87492 0.29185,0.12828 0.60241,0.19143 0.91523,0.24254 0.27191,0.0444 0.45302,0.0809 0.72952,0.0496 0.11494,-0.013 0.22579,-0.0504 0.33869,-0.0756 0.27868,-0.0774 0.52409,-0.22475 0.76825,-0.37402 0.13086,-0.08 0.21348,-0.13889 0.35169,-0.20167 0.0548,-0.0249 0.11231,-0.0432 0.16847,-0.0647 0.0589,-0.0153 0.11634,-0.0384 0.17675,-0.0459 0.34376,-0.0426 0.74694,0.16184 1.03968,0.32173 0,0 -1.19911,-0.96026 -1.19911,-0.96026 v 0 c -0.34552,-0.1617 -0.72554,-0.31391 -1.11436,-0.23294 -0.0642,0.0134 -0.12498,0.0401 -0.18747,0.0601 -0.0587,0.0268 -0.11904,0.0504 -0.17622,0.0803 -0.14959,0.0783 -0.19758,0.12396 -0.33997,0.2172 -0.22309,0.14608 -0.4531,0.27756 -0.71362,0.34594 -0.10484,0.0183 -0.20833,0.0479 -0.31453,0.0549 -0.23968,0.016 -0.47614,-0.0242 -0.70961,-0.071 -0.31757,-0.0638 -0.62935,-0.153 -0.91916,-0.30018 0.36163,0.21222 0.72313,0.42469 1.08491,0.63667 0.0612,0.0358 -0.12426,-0.0687 -0.18308,-0.10825 -0.0538,-0.0362 -0.10603,-0.0751 -0.15398,-0.11868 -0.13241,-0.12034 -0.22883,-0.27004 -0.29887,-0.43343 -0.0166,-0.0541 -0.0385,-0.10684 -0.0498,-0.16227 -0.0644,-0.31435 0.0528,-0.61381 0.22251,-0.87379 0.0452,-0.0536 0.0863,-0.11101 0.13574,-0.16073 0.23018,-0.23145 0.53113,-0.38713 0.82772,-0.51432 z" />
    <path
       style="fill:#000000;stroke:#a3a3a3;stroke-width:0;stroke-dasharray:none;stroke-dashoffset:0;stroke-opacity:1"
       id="path4"
       d="m 170.7973,221.90192 c 0.69337,0.0115 1.39917,-0.0629 2.08561,0.0712 0.19529,0.0382 0.38448,0.10269 0.57672,0.15403 0.18926,0.0889 0.38067,0.17332 0.56779,0.26663 0.0918,0.0458 -0.33848,-0.20942 -0.2817,-0.12397 0.11131,0.16747 0.31405,0.25206 0.45928,0.39115 0.13075,0.12523 0.25479,0.25831 0.3671,0.40031 0.22079,0.27916 0.44513,0.68491 0.62306,0.98626 0.39971,0.66754 0.7528,1.40423 1.33433,1.94068 0.5416,0.49961 1.22835,0.75023 1.87829,1.08666 1.06075,0.32494 2.26053,0.47616 3.31904,0.0417 0.18406,-0.0755 0.35037,-0.18864 0.52555,-0.28296 0.1415,-0.11416 0.28301,-0.22832 0.42451,-0.34248 0,0 -0.80779,-0.50708 -0.80779,-0.50708 v 0 c -0.13702,0.1099 -0.27404,0.21981 -0.41106,0.32972 -0.17077,0.0895 -0.33299,0.19762 -0.51229,0.26845 -1.0495,0.41456 -2.23774,0.24938 -3.27724,-0.0926 0.0683,0.0674 0.29024,0.24577 0.2048,0.20216 -0.862,-0.43992 -1.33808,-1.47377 -1.81302,-2.25944 -0.15467,-0.26961 -0.41592,-0.74742 -0.60982,-1.002 -0.685,-0.89938 -1.72037,-1.45039 -2.74358,-1.87966 -0.19608,-0.0488 -0.38946,-0.11008 -0.58824,-0.1463 -0.69884,-0.12732 -1.41462,-0.0544 -2.11961,-0.0824 z" />
    <path
       style="fill:#000000;stroke:#a3a3a3;stroke-width:0;stroke-dasharray:none;stroke-dashoffset:0;stroke-opacity:1"
       id="path5"
       d="m 169.5586,239.28969 c -0.60041,0.55328 -0.97286,1.32366 -1.14655,2.1166 -0.043,0.19621 -0.0571,0.39766 -0.0856,0.59649 0.0171,0.45037 -0.004,0.81559 0.159,1.2496 0.34904,0.92879 1.06293,1.68467 1.8121,2.30554 0.30657,0.25408 0.6402,0.47362 0.9603,0.71043 1.46368,0.88384 2.9936,1.83988 4.74693,1.97897 0.69115,0.0548 0.85139,-0.019 1.49594,-0.14634 0.67821,-0.30403 0.37266,-0.12734 0.92612,-0.51334 0,0 -0.80916,-0.51555 -0.80916,-0.51555 v 0 c -0.52952,0.37139 -0.23644,0.20225 -0.88881,0.49047 -0.63206,0.12104 -0.7812,0.19111 -1.45935,0.13182 -1.12965,-0.0988 -2.198,-0.54797 -3.17748,-1.09525 -0.3193,-0.23284 -0.65158,-0.44885 -0.9579,-0.69852 -0.73712,-0.60078 -1.44687,-1.33321 -1.79811,-2.23771 -0.16365,-0.42143 -0.14801,-0.77878 -0.17042,-1.21774 0.0265,-0.19448 0.0381,-0.39159 0.0795,-0.58344 0.16632,-0.77005 0.53068,-1.53124 1.14174,-2.04056 z" />
    <path
       style="fill:#000000;stroke:#a3a3a3;stroke-width:0;stroke-dasharray:none;stroke-dashoffset:0;stroke-opacity:1"
       id="path6"
       d="m 109.59224,230.35185 c -0.15756,0.58578 -0.40262,1.1416 -0.57403,1.72277 -0.17255,0.57329 -0.25294,1.167 -0.30707,1.76143 -0.0559,0.49011 -0.008,0.96864 0.11752,1.44323 0.16068,0.45058 0.33489,0.90336 0.59298,1.30778 0.27679,0.40294 0.64406,0.71068 1.0426,0.98497 0.71784,0.48738 1.16672,0.72694 1.96122,0.80231 0.43397,0.0324 0.86631,0.0109 1.29896,-0.0244 0.59923,-0.0375 1.16039,-0.23947 1.73354,-0.39841 0.57233,-0.14096 1.11559,-0.36637 1.66963,-0.56183 0.38523,-0.13004 0.77588,-0.22353 1.17967,-0.2696 0.36713,-0.0324 0.7356,0.026 1.10171,0.0551 0.28669,0.0187 0.56524,0.0905 0.85172,0.11442 0.0512,0.009 0.10236,0.0181 0.15354,0.0272 0,0 -0.78866,-0.59247 -0.78866,-0.59247 v 0 c -0.0525,-0.008 -0.10509,-0.0153 -0.15764,-0.023 -0.28433,-0.0339 -0.56456,-0.0985 -0.85124,-0.11149 -0.36955,-0.0297 -0.7417,-0.0843 -1.1121,-0.038 -0.40676,0.054 -0.80122,0.15436 -1.18872,0.28991 -0.54788,0.20129 -1.08983,0.41913 -1.65767,0.56116 -0.56987,0.1585 -1.13315,0.34477 -1.72861,0.37875 -0.43126,0.0308 -0.86355,0.0445 -1.29503,0.005 -0.1823,-0.021 -0.36244,-0.0441 -0.53938,-0.0954 -0.32805,-0.095 -1.0152,-0.49058 0.28257,0.23879 -0.39858,-0.26744 -0.7768,-0.55362 -1.05823,-0.95064 -0.27253,-0.3886 -0.43578,-0.841 -0.60901,-1.28037 -0.1308,-0.46301 -0.18192,-0.93064 -0.13069,-1.41156 0.0449,-0.58986 0.11998,-1.17895 0.29251,-1.74694 0.16857,-0.58089 0.40774,-1.137 0.58609,-1.71502 z" />
    <path
       style="fill:#000000;stroke:#a3a3a3;stroke-width:0;stroke-dasharray:none;stroke-dashoffset:0;stroke-opacity:1"
       id="path7"
       d="m 123.38271,225.82447 c -0.50691,0.29494 -0.74201,0.86099 -0.9307,1.38802 -0.18362,0.56494 -0.25062,1.15868 -0.24509,1.75045 0.0171,0.49327 0.1728,0.93775 0.45915,1.33507 0.64875,0.67288 1.5785,1.01659 2.46687,1.246 0.66522,0.13646 1.3454,0.24433 2.02483,0.18132 0.37601,-0.0982 0.67553,-0.31458 0.91301,-0.61521 0,0 -0.84453,-0.50444 -0.84453,-0.50444 v 0 c -0.22439,0.27991 -0.50637,0.47854 -0.86408,0.55158 -0.67102,0.0485 -1.34212,-0.0559 -1.99628,-0.20182 -0.34117,-0.0947 -0.3857,-0.0982 -0.71096,-0.22256 -0.10501,-0.0402 -0.39763,-0.20175 -0.31138,-0.12963 0.17029,0.14238 0.37866,0.23176 0.56937,0.34535 0.0665,0.0396 -0.13513,-0.0765 -0.19668,-0.12336 -0.0538,-0.041 -0.0986,-0.0928 -0.14791,-0.13923 -0.3001,-0.37231 -0.46593,-0.79982 -0.49086,-1.28119 -0.0126,-0.58146 0.0497,-1.16544 0.22357,-1.72249 0.17714,-0.50033 0.40056,-1.05432 0.90334,-1.30593 z" />
    <path
       style="fill:#000000;stroke:#a3a3a3;stroke-width:0;stroke-dasharray:none;stroke-dashoffset:0;stroke-opacity:1"
       id="path8"
       d="m 126.20037,242.82657 c -0.48949,0.33057 -1.04175,0.59774 -1.46708,1.01582 -0.0808,0.0794 -0.14924,0.17048 -0.22386,0.25571 -0.3034,0.45002 -0.51462,1.00888 -0.33111,1.55287 0.043,0.12736 0.11807,0.2415 0.1771,0.36225 0.0764,0.11146 0.14425,0.22923 0.2291,0.33438 0.61297,0.7596 1.74588,1.27223 2.55259,1.72219 0.70017,0.3279 1.46614,0.45456 2.22921,0.52927 0.0857,0.005 0.17146,0.0107 0.25719,0.0161 0,0 -0.78742,-0.57997 -0.78742,-0.57997 v 0 c -0.0844,-0.006 -0.16874,-0.0115 -0.25311,-0.0173 -0.75477,-0.077 -1.50919,-0.21069 -2.19577,-0.54993 0.14258,0.0895 0.29791,0.16132 0.42775,0.26846 0.11277,0.0931 -0.25294,-0.14694 -0.37606,-0.22581 -0.46278,-0.29648 -0.90923,-0.62552 -1.20267,-1.10049 -0.0616,-0.11177 -0.13898,-0.21619 -0.1848,-0.3353 -0.19676,-0.5114 0.002,-1.0477 0.28946,-1.47463 0.0717,-0.0814 0.1374,-0.16857 0.21509,-0.24431 0.42425,-0.4136 0.97182,-0.68428 1.46935,-0.99454 z" />
    <path
       style="fill:#000000;stroke:#a3a3a3;stroke-width:0;stroke-dasharray:none;stroke-dashoffset:0;stroke-opacity:1"
       id="path9"
       d="m 132.51374,234.98024 c 0.004,0.60001 0.10164,1.21506 0.36209,1.76106 0.0586,0.12288 0.13453,0.23673 0.2018,0.3551 0.56287,0.74532 1.14972,1.01569 2.03315,1.43096 0.15958,0.075 0.58752,0.13798 0.75651,0.16753 0.13867,-0.002 0.27836,0.0117 0.416,-0.005 0.64801,-0.0795 1.19229,-0.4947 1.60711,-0.97647 0.12433,-0.14439 0.22929,-0.30438 0.34394,-0.45657 0.75336,-1.13858 0.87786,-2.50617 1.01866,-3.82777 0.13345,-0.99003 0.22698,-2.04921 0.74168,-2.9319 0.0694,-0.11905 0.15861,-0.22542 0.23791,-0.33814 0.1889,-0.23255 0.4201,-0.383 0.68455,-0.51046 0,0 -0.81923,-0.53752 -0.81923,-0.53752 v 0 c -0.2675,0.147 -0.5059,0.31338 -0.69607,0.55947 -0.0797,0.11811 -0.16934,0.23014 -0.23925,0.35433 -0.50657,0.89996 -0.61106,1.96523 -0.74263,2.96867 -0.13629,1.30477 -0.25502,2.6555 -1.0034,3.77738 -0.11316,0.14797 -0.21641,0.30407 -0.33948,0.4439 -0.40769,0.46322 -0.94177,0.8536 -1.57376,0.90773 -0.13536,0.0116 -0.27163,-0.007 -0.40745,-0.01 -0.12603,-0.0248 -0.25347,-0.0434 -0.37809,-0.0745 -0.12361,-0.0309 -0.4286,-0.22205 -0.36567,-0.11127 0.0964,0.16966 0.33401,0.20371 0.48699,0.32483 0.0993,0.0786 -0.22313,-0.12147 -0.32506,-0.19663 -0.2578,-0.19009 -0.3469,-0.3235 -0.55444,-0.56663 -0.0695,-0.11422 -0.14801,-0.22345 -0.20857,-0.34267 -0.26717,-0.52595 -0.37171,-1.13161 -0.35703,-1.7168 z" />
    <path
       style="fill:#000000;stroke:#a3a3a3;stroke-width:0;stroke-dasharray:none;stroke-dashoffset:0;stroke-opacity:1"
       id="path10"
       d="m 134.14581,222.03339 c -0.0459,0.44362 -0.0167,0.88163 0.0557,1.31967 0,0 0.8748,0.42638 0.8748,0.42638 v 0 c -0.0828,-0.4284 -0.12048,-0.85666 -0.0567,-1.29192 z" />
    <path
       style="fill:#000000;stroke:#a3a3a3;stroke-width:0;stroke-dasharray:none;stroke-dashoffset:0;stroke-opacity:1"
       id="path11"
       d="m 123.88734,219.37758 c 0.89585,-0.0646 1.7984,-0.11818 2.68822,0.0414 0.23296,0.0418 0.46097,0.10762 0.69145,0.16143 0.26422,0.1022 0.90428,0.3191 1.13411,0.52274 0.10235,0.0907 -0.34628,-0.29075 -0.37863,-0.15789 -0.0371,0.1525 0.23357,0.21081 0.337,0.32887 0.24946,0.28475 0.28587,0.39906 0.45818,0.72629 0.26621,0.6572 0.33841,1.36562 0.56067,2.03588 0.08,0.24473 0.21552,0.46056 0.35328,0.67529 0,0 0.89698,0.39278 0.89698,0.39278 v 0 c -0.14183,-0.20744 -0.28274,-0.4154 -0.36759,-0.65454 -0.2391,-0.67164 -0.31248,-1.38469 -0.56513,-2.05306 -0.16664,-0.33511 -0.20588,-0.46138 -0.45047,-0.75563 -0.45567,-0.54819 -0.88555,-0.71512 -1.5835,-1.13246 -0.17018,-0.10176 -0.34616,-0.1949 -0.52798,-0.27401 -0.19959,-0.0868 -0.40921,-0.14852 -0.61382,-0.22278 -0.23204,-0.0511 -0.46186,-0.11362 -0.69614,-0.15319 -0.90884,-0.15349 -1.82814,-0.0991 -2.74324,-0.0535 z" />
    <path
       style="fill:#000000;stroke:#000000;stroke-width:0;stroke-dasharray:none;stroke-dashoffset:0;stroke-opacity:1"
       d="m -78.243546,-28.636531 c -2.909893,0.4562 -6.803679,3.6955 -6.51072,7.28861 0.336593,4.12829 5.316703,6.17887 8.683165,6.37697 2.220112,0.13064 5.029067,-1.06846 6.026096,-3.51392 0.670137,-1.64368 0.01274,-3.9366 -0.881976,-5.40939 -1.650714,-2.71725 -4.582411,-5.17092 -7.316565,-4.74227 z"
       id="path31"
       sodipodi:nodetypes="ssssss" />
    <path
       style="fill:none;stroke:#000000;stroke-width:1;stroke-dasharray:none;stroke-dashoffset:0;stroke-opacity:1"
       d="m -76.484722,-18.555451 18.724131,53.95854 -13.402424,-36.42516 -26.377842,1.35916996 45.473983,-4.07004996 -27.0251,55.36383 15.461678,-33.35669 21.785831,30.99932 11.282823,-4.46192 8.627137,-11.41334 5.10131,7.51087"
       id="path32" />
    <g
       id="g24">
      <g
         id="g23"
         transform="translate(76.804659,59.524314)">
        <path
           style="fill:#999999;fill-opacity:0.34902;stroke:#2b0000;stroke-width:1;stroke-dasharray:none"
           d="m 78.390331,41.864885 c -6.97375,3.112186 -16.94979,11.496716 -16.08964,17.796356 0.86015,6.29964 4.37669,12.65946 11.28918,15.89036 6.91249,3.2309 20.7199,2.94635 26.20816,-2.06528 5.488259,-5.01163 3.841199,-12.98247 3.085209,-18.04181 -0.75599,-5.05934 -1.29163,-8.02664 -5.566959,-11.06821 -4.27534,-3.041573 -11.9522,-5.623599 -18.92595,-2.511416 z"
           id="path12"
           sodipodi:nodetypes="zzzzzzz" />
        <path
           style="fill:#999999;fill-opacity:0.34902;stroke:#2b0000;stroke-width:1;stroke-dasharray:none"
           d="m 77.742571,48.889781 c 2.4106,1.67417 5.20885,2.89807 6.84795,2.30203 1.6391,-0.59604 0.41873,-0.5051 1.01021,-0.5051"
           id="path13"
           sodipodi:nodetypes="czc" />
        <path
           style="fill:#999999;fill-opacity:0.34902;stroke:#2b0000;stroke-width:1;stroke-dasharray:none"
           d="m 89.095531,63.119091 c 7.72611,4.23525 6.18297,-1.11033 8.11693,-1.11033"
           id="path14"
           sodipodi:nodetypes="cc" />
        <path
           style="fill:#999999;fill-opacity:0.34902;stroke:#2b0000;stroke-width:1;stroke-dasharray:none"
           d="m 70.606441,58.000521 c 0,0.76157 0.0629,1.11628 0,2.28473 -0.0629,1.16845 -0.064,2.58444 0.67347,3.19898 0.73745,0.61454 0.24455,0.26229 0.50509,0.33674 0.26054,0.0744 0.97482,0 1.34695,0"
           id="path15"
           sodipodi:nodetypes="czzzc" />
        <path
           style="fill:#999999;fill-opacity:0.34902;stroke:#2b0000;stroke-width:1;stroke-dasharray:none"
           d="m 93.359991,55.968241 c 0.63938,-0.22254 1.47304,0.13183 2.00032,0 0.52728,-0.13183 3.03062,-1.92352 3.03062,-2.43736"
           id="path16"
           sodipodi:nodetypes="czc" />
        <path
           style="fill:#999999;fill-opacity:0.34902;stroke:#2b0000;stroke-width:1;stroke-dasharray:none"
           d="m 79.533741,60.662591 c 0.32988,1.36073 -0.2638,2.41562 0,4.26222 0.2638,1.8466 2.6031,4.83079 3.87245,5.55614 1.26934,0.72535 6.67974,1.17347 7.32198,1.17347"
           id="path17"
           sodipodi:nodetypes="czzc" />
      </g>
      <g
         id="g65">
        <path
           style="fill:#000000;stroke:#000000;stroke-width:0;stroke-dasharray:none;stroke-dashoffset:0;stroke-opacity:1"
           d="m 117.92224,120.75133 c -2.90989,0.4562 -6.80367,3.6955 -6.51072,7.28861 0.3366,4.12829 5.31671,6.17887 8.68317,6.37697 2.22011,0.13064 5.02907,-1.06846 6.0261,-3.51392 0.67013,-1.64368 0.0127,-3.9366 -0.88198,-5.40939 -1.65071,-2.71725 -4.58241,-5.17092 -7.31657,-4.74227 z"
           id="path56"
           sodipodi:nodetypes="ssssss" />
        <path
           style="fill:none;stroke:#000000;stroke-width:1;stroke-dasharray:none;stroke-dashoffset:0;stroke-opacity:1"
           d="m 122.82338,134.42654 c 3.57212,3.29631 4.05173,5.34995 4.96439,7.77784 0.92177,2.4521 1.46748,4.20053 0.98129,8.47178 -0.003,0.0243 0.60364,0.53627 0.59163,0.59163 -0.0102,0.0469 -0.096,0 -0.14395,0"
           id="path57"
           sodipodi:nodetypes="csssc" />
        <path
           style="fill:none;stroke:#000000;stroke-width:1;stroke-dasharray:none;stroke-dashoffset:0;stroke-opacity:1"
           d="m 129.21674,151.26779 c -2.17597,5.36759 -2.75594,9.22691 -2.95879,13.87017 -0.056,0.0288 -0.12586,0 -0.18879,0"
           id="path60"
           sodipodi:nodetypes="ccc" />
        <path
           style="fill:none;stroke:#000000;stroke-width:1;stroke-dasharray:none;stroke-dashoffset:0;stroke-opacity:1"
           d="m 129.36069,151.2678 c 4.02546,-2.02908 8.32224,-2.77499 12.04059,-1.74462 3.38977,0.93932 2.59198,8.79971 0.91311,11.44129 -0.0891,0.11887 0.15397,0.16855 -0.11832,0.23665 -0.11473,0.0287 -0.23653,0 -0.3548,0"
           id="path61"
           sodipodi:nodetypes="cscsc" />
        <path
           style="fill:none;stroke:#000000;stroke-width:1;stroke-dasharray:none;stroke-dashoffset:0;stroke-opacity:1"
           d="m 126.06916,165.13796 c -0.0401,0.56465 -0.66074,1.52521 -0.1204,1.69394 0.7604,0.23745 1.41385,-0.73627 2.14027,-1.06321 0.93183,-0.41938 1.84526,-0.90758 2.83164,-1.17449 2.01332,-0.54481 4.09306,-0.80641 6.1309,-1.2508 4.51409,-0.98439 9.39016,-1.95648 13.57707,-4.00489 1.05211,-0.51473 1.76922,-1.20843 2.6842,-1.83986 0.44927,-0.31005 0.86252,-0.72904 1.39166,-0.86317 0.25906,-0.0657 0.97546,-0.0418 1.12197,-0.28527 0.18877,-0.31376 0.17643,-0.71452 0.32387,-1.04971 1.33681,-3.03913 0.42322,0.19858 1.71473,-4.6078 0.54164,-2.01574 1.09478,-4.03381 1.46463,-6.08801 0.12195,-0.67734 -0.17736,-2.70203 0.61844,-3.05012 9.46145,-4.13857 3.98248,-0.42195 15.03142,-7.44289 4.77939,-3.03701 2.53458,-0.52381 7.08114,-3.89942 8.37823,-6.22047 5.35015,-3.13019 7.66329,-5.95426"
           id="path62"
           sodipodi:nodetypes="cssssssssssscssc" />
        <path
           style="fill:none;stroke:#000000;stroke-width:1;stroke-dasharray:none;stroke-dashoffset:0;stroke-opacity:1"
           d="m 127.40157,140.01711 13.91422,-4.60563 3.03763,-6.62565"
           id="path63-6"
           sodipodi:nodetypes="ccc" />
        <path
           style="fill:none;stroke:#000000;stroke-width:1;stroke-dasharray:none;stroke-dashoffset:0;stroke-opacity:1"
           d="m 127.40157,140.01711 10.09517,-8.33838 3.35914,-6.34135"
           id="path64-7"
           sodipodi:nodetypes="ccc" />
      </g>
    </g>
    <g
       id="g25">
      <g
         id="g49"
         transform="translate(-104.19372,7.0548055)">
        <path
           style="fill:#999999;fill-opacity:0.34902;stroke:#2b0000;stroke-width:1;stroke-dasharray:none"
           d="m 147.79762,102.40584 c -5.13025,7.2841 -8.58783,18.66208 -4.71082,23.52435 4.05076,5.08015 11.36767,8.52088 17.83251,7.87088 8.71917,-0.87665 18.92241,-6.80215 21.45616,-15.19099 1.76409,-5.84064 -2.72227,-12.35581 -6.58596,-17.07778 -2.61525,-3.196192 -6.33207,-6.324143 -10.44835,-6.657945 -6.34313,-0.514384 -13.87901,2.328489 -17.54354,7.531485 z"
           id="path23"
           sodipodi:nodetypes="ssaaaas" />
        <path
           style="fill:#999999;fill-opacity:0.34902;stroke:#2b0000;stroke-width:1;stroke-dasharray:none"
           d="m 150.83747,108.77201 c 2.92783,0.20408 5.17629,0.78076 7.06104,-1.52821 0.32103,-0.39327 0.10112,-0.64825 0.60922,-0.95105"
           id="path24" />
        <path
           style="fill:#999999;fill-opacity:0.34902;stroke:#2b0000;stroke-width:1;stroke-dasharray:none"
           d="m 167.56623,116.74092 c 2.37644,0.46544 3.21726,-0.18916 4.87858,-1.17922"
           id="path25" />
        <path
           style="fill:#999999;fill-opacity:0.34902;stroke:#2b0000;stroke-width:1;stroke-dasharray:none"
           d="m 149.37146,120.25159 c 0.38988,0.6542 0.81545,1.28843 1.16963,1.96263 0.73409,1.39764 0.51987,2.13417 2.2162,2.40323 0.19985,0.0317 0.41068,0.0825 0.60627,0.0307 0.32826,-0.087 0.8374,-0.49905 1.15707,-0.68955"
           id="path26" />
        <path
           style="fill:#999999;fill-opacity:0.34902;stroke:#2b0000;stroke-width:1;stroke-dasharray:none"
           d="m 167.87692,106.85748 c 0.43532,-0.51849 1.24545,-0.55397 1.71833,-1.02404 0.29804,-0.29627 1.61866,-3.20383 1.3556,-3.64523"
           id="path27" />
        <path
           style="fill:#999999;fill-opacity:0.34902;stroke:#2b0000;stroke-width:1;stroke-dasharray:none"
           d="m 158.40304,117.96817 c 0.97998,1.00003 1.30267,2.57251 2.18197,3.66136 1.46459,1.8136 3.89033,2.83212 6.17091,2.79041 0.64288,-0.0117 1.07095,0.14577 1.62265,-0.18302"
           id="path28" />
      </g>
      <g
         id="g22"
         transform="translate(-100.54167)">
        <path
           style="fill:#000000;stroke:#000000;stroke-width:0;stroke-dasharray:none;stroke-dashoffset:0;stroke-opacity:1"
           d="m 117.92224,120.75133 c -2.90989,0.4562 -6.80367,3.6955 -6.51072,7.28861 0.3366,4.12829 5.31671,6.17887 8.68317,6.37697 2.22011,0.13064 5.02907,-1.06846 6.0261,-3.51392 0.67013,-1.64368 0.0127,-3.9366 -0.88198,-5.40939 -1.65071,-2.71725 -4.58241,-5.17092 -7.31657,-4.74227 z"
           id="path2"
           sodipodi:nodetypes="ssssss" />
        <path
           style="fill:none;stroke:#000000;stroke-width:1;stroke-dasharray:none;stroke-dashoffset:0;stroke-opacity:1"
           d="m 122.82338,134.42654 c -0.41022,3.35415 -1.19058,6.46968 1.08726,9.48008 2.27784,3.0104 3.80863,4.65429 4.85842,6.76954 1.25549,2.52972 0.60364,0.53627 0.59163,0.59163 -0.0102,0.0469 -0.096,0 -0.14395,0"
           id="path3"
           sodipodi:nodetypes="csssc" />
        <path
           style="fill:none;stroke:#000000;stroke-width:1;stroke-dasharray:none;stroke-dashoffset:0;stroke-opacity:1"
           d="m 129.21674,151.26779 c -2.17597,5.36759 -2.75594,9.22691 -2.95879,13.87017 -0.056,0.0288 -0.12586,0 -0.18879,0"
           id="path18"
           sodipodi:nodetypes="ccc" />
        <path
           style="fill:none;stroke:#000000;stroke-width:1;stroke-dasharray:none;stroke-dashoffset:0;stroke-opacity:1"
           d="m 129.36069,151.2678 c 4.02546,-2.02908 8.32224,-2.77499 12.04059,-1.74462 3.38977,0.93932 2.59198,8.79971 0.91311,11.44129 -0.0891,0.11887 0.15397,0.16855 -0.11832,0.23665 -0.11473,0.0287 -0.23653,0 -0.3548,0"
           id="path19"
           sodipodi:nodetypes="cscsc" />
        <path
           style="fill:none;stroke:#000000;stroke-width:1;stroke-dasharray:none;stroke-dashoffset:0;stroke-opacity:1"
           d="m 126.06916,165.13796 c -0.0401,0.56465 -0.66074,1.52521 -0.1204,1.69394 0.7604,0.23745 1.41385,-0.73627 2.14027,-1.06321 0.93183,-0.41938 1.84526,-0.90758 2.83164,-1.17449 2.01332,-0.54481 4.09306,-0.80641 6.1309,-1.2508 4.51409,-0.98439 9.39016,-1.95648 13.57707,-4.00489 1.05211,-0.51473 1.76922,-1.20843 2.6842,-1.83986 0.44927,-0.31005 0.86252,-0.72904 1.39166,-0.86317 0.25906,-0.0657 0.97546,-0.0418 1.12197,-0.28527 0.18877,-0.31376 0.17643,-0.71452 0.32387,-1.04971 1.33681,-3.03913 0.42322,0.19858 1.71473,-4.6078 0.54164,-2.01574 1.09478,-4.03381 1.46463,-6.08801 0.12195,-0.67734 -0.17736,-2.70203 0.61844,-3.05012 9.46145,-4.13857 3.98248,-0.42195 15.03142,-7.44289 4.77939,-3.03701 2.53458,-0.52381 7.08114,-3.89942 8.37823,-6.22047 5.35015,-3.13019 7.66329,-5.95426"
           id="path20"
           sodipodi:nodetypes="cssssssssssscssc" />
        <path
           style="fill:none;stroke:#000000;stroke-width:1;stroke-dasharray:none;stroke-dashoffset:0;stroke-opacity:1"
           d="m 123.02971,142.43449 14.23538,-2.40371 3.03763,-6.62565"
           id="path21"
           sodipodi:nodetypes="ccc" />
        <path
           style="fill:none;stroke:#000000;stroke-width:1;stroke-dasharray:none;stroke-dashoffset:0;stroke-opacity:1"
           d="m 123.02971,142.43449 8.87782,-11.26336 6.23022,-4.6491"
           id="path22"
           sodipodi:nodetypes="ccc" />
      </g>
    </g>
  </g>
</svg>
