<?xml version="1.0" encoding="UTF-8" standalone="no"?>
<!-- Created with Inkscape (http://www.inkscape.org/) -->

<svg
   width="78.714882mm"
   height="64.880798mm"
   viewBox="0 0 78.714882 64.880798"
   version="1.1"
   id="svg5"
   xmlns="http://www.w3.org/2000/svg"
   xmlns:svg="http://www.w3.org/2000/svg">
  <defs
     id="defs2" />
  <g
     id="layer1"
     transform="translate(-4.6529505,-104.65999)">
    <g
       id="g64">
      <path
         style="fill:#999999;fill-opacity:0.34902;stroke:#2b0000;stroke-width:1;stroke-dasharray:none"
         d="m 41.964929,106.49475 c -8.13599,3.63087 -16.93093,11.63478 -16.08964,17.79636 0.879,6.4377 5.40297,13.13915 11.28918,15.89036 7.93877,3.71058 19.73707,3.84383 26.20816,-2.06528 4.50542,-4.11415 3.98687,-12.00757 3.08521,-18.04181 -0.61032,-4.08444 -2.20186,-8.6742 -5.56696,-11.06821 -5.18557,-3.68914 -13.11444,-5.10492 -18.92595,-2.51142 z"
         id="path1128" />
      <path
         style="fill:#999999;fill-opacity:0.34902;stroke:#2b0000;stroke-width:1;stroke-dasharray:none"
         d="m 41.317169,113.51965 c 2.4106,1.67417 4.04686,3.32062 6.84795,2.30203 0.4771,-0.17349 0.41873,-0.5051 1.01021,-0.5051"
         id="path1295" />
      <path
         style="fill:#999999;fill-opacity:0.34902;stroke:#2b0000;stroke-width:1;stroke-dasharray:none"
         d="m 51.608019,128.92917 c 1.80315,1.61641 2.86054,1.48454 4.7945,1.48454"
         id="path1297" />
      <path
         style="fill:#999999;fill-opacity:0.34902;stroke:#2b0000;stroke-width:1;stroke-dasharray:none"
         d="m 34.181039,122.63039 c 0,0.76157 0.0409,1.52425 0,2.28473 -0.0849,1.57641 -0.64598,2.09944 0.67347,3.19898 0.15545,0.12954 0.31053,0.28115 0.50509,0.33674 0.32652,0.0933 0.97482,0 1.34695,0"
         id="path1299" />
      <path
         style="fill:#999999;fill-opacity:0.34902;stroke:#2b0000;stroke-width:1;stroke-dasharray:none"
         d="m 56.934589,120.59811 c 0.63938,-0.22254 1.35346,0.16172 2.00032,0 0.4077,-0.10193 3.03062,-1.92352 3.03062,-2.43736"
         id="path1301" />
      <path
         style="fill:#999999;fill-opacity:0.34902;stroke:#2b0000;stroke-width:1;stroke-dasharray:none"
         d="m 43.108339,125.29246 c 0.32988,1.36073 -0.19793,2.87673 0,4.26222 0.32967,2.3077 1.89202,4.42445 3.87245,5.55614 0.55826,0.31901 0.84535,0.67347 1.48759,0.67347"
         id="path1303" />
      <path
         style="fill:#000000;stroke:#000000;stroke-width:0;stroke-dasharray:none;stroke-dashoffset:0;stroke-opacity:1"
         d="m 11.179274,122.92394 c -2.9098927,0.4562 -6.8036787,3.6955 -6.5107197,7.28861 0.336593,4.12829 5.316703,6.17887 8.6831647,6.37697 2.220112,0.13064 5.029067,-1.06846 6.026096,-3.51392 0.670137,-1.64368 0.01274,-3.9366 -0.881976,-5.40939 -1.650714,-2.71725 -4.582411,-5.17092 -7.316565,-4.74227 z"
         id="path29" />
      <path
         style="fill:none;stroke:#000000;stroke-width:1;stroke-dasharray:none;stroke-dashoffset:0;stroke-opacity:1"
         d="m 16.080414,136.59915 c 0,1.81425 0,3.62849 0,5.44274 0,0.55766 -0.09153,1.22568 0,1.77487 0.194353,1.16611 1.126596,2.37142 1.659443,3.43624 0.445757,0.89079 -0.0073,0.31906 0.597445,1.19245 0.227134,0.32805 0.496742,0.62572 0.718219,0.95762 0.09791,0.14672 0.13084,0.33217 0.236652,0.4733 0.134493,0.17938 0.344942,0.29353 0.475141,0.47606 0.0726,0.10178 0.04572,0.25413 0.118327,0.3559 0.554268,0.77684 1.46245,1.46245 2.140453,2.14044 0.01733,0.0173 0.603615,0.53627 0.591627,0.59163 -0.01016,0.0469 -0.09597,0 -0.14395,0"
         id="path40" />
      <path
         style="fill:none;stroke:#000000;stroke-width:1;stroke-dasharray:none;stroke-dashoffset:0;stroke-opacity:1"
         d="m 22.473771,153.4404 c -1.031885,2.08464 -1.910863,4.52055 -2.367168,6.80207 -0.11075,0.55375 -0.314741,1.09327 -0.354973,1.65655 -0.0281,0.39342 0.03925,0.79079 0,1.18325 -0.04002,0.40024 -0.198517,0.78284 -0.236652,1.18325 -0.06755,0.70925 0,1.51567 0,2.2438 0,0.24258 0.04392,0.77866 0,0.80125 -0.05596,0.0288 -0.125859,0 -0.188788,0"
         id="path43" />
      <path
         style="fill:none;stroke:#000000;stroke-width:1;stroke-dasharray:none;stroke-dashoffset:0;stroke-opacity:1"
         d="m 22.617721,153.4404 c 1.421442,-0.54056 2.842884,-1.08111 4.264326,-1.62167 1.031923,-0.31969 2.083668,-0.58129 3.095771,-0.95907 0.386889,-0.14441 0.702926,-0.44036 1.083421,-0.60087 0.99291,-0.41884 2.116415,-0.59444 3.123771,-0.9722 0.165158,-0.0619 0.301236,-0.19783 0.473303,-0.23665 0.153754,-0.0347 0.140329,0.28229 0.211603,0.42287 0.253907,0.50082 0.624692,1.02927 0.828275,1.53823 0.150871,0.37717 0.06514,0.48555 0.236652,0.82827 0.103364,0.20655 0.270713,0.3797 0.356621,0.5941 0.517252,1.29088 0.358211,3.28505 0.358211,4.6456 0,0.74631 0.143463,1.66197 -0.118324,2.37651 -0.261022,0.71244 -0.543094,1.00909 -0.959927,1.56488 -0.08915,0.11887 0.153964,0.16855 -0.118324,0.23665 -0.114734,0.0287 -0.236535,0 -0.354801,0"
         id="path44" />
      <path
         style="fill:none;stroke:#000000;stroke-width:1;stroke-dasharray:none;stroke-dashoffset:0;stroke-opacity:1"
         d="m 19.32619,167.31057 c -0.04013,0.56465 -0.660736,1.52521 -0.120396,1.69394 0.760392,0.23745 1.413849,-0.73627 2.140268,-1.06321 0.931823,-0.41938 1.845262,-0.90758 2.831637,-1.17449 2.013317,-0.54481 4.093061,-0.80641 6.130901,-1.2508 4.514085,-0.98439 9.390163,-1.95648 13.577072,-4.00489 1.052105,-0.51473 1.769219,-1.20843 2.684195,-1.83986 0.449273,-0.31005 0.862526,-0.72904 1.391664,-0.86317 0.259061,-0.0657 0.975455,-0.0418 1.121965,-0.28527 0.188778,-0.31376 0.17643,-0.71452 0.323869,-1.04971 1.336815,-3.03913 0.423225,0.19858 1.714735,-4.6078 0.541642,-2.01574 1.09478,-4.03381 1.464628,-6.08801 0.121949,-0.67734 -0.177356,-2.70203 0.618442,-3.05012 9.461449,-4.13857 3.982483,-0.42195 15.031423,-7.44289 4.77939,-3.03701 2.534573,-0.52381 7.081133,-3.89942 8.37823,-6.22047 5.350158,-3.13019 7.663298,-5.95426"
         id="path49" />
      <path
         style="fill:none;stroke:#000000;stroke-width:1;stroke-dasharray:none;stroke-dashoffset:0;stroke-opacity:1"
         d="m 16.080414,142.04189 12.283575,0.40867 3.037631,-6.62565"
         id="path63" />
      <path
         style="fill:none;stroke:#000000;stroke-width:1;stroke-dasharray:none;stroke-dashoffset:0;stroke-opacity:1"
         d="m 16.080414,142.04189 8.633793,-10.7302 3.515834,0.0159"
         id="path64" />
    </g>
  </g>
</svg>
