<?xml version="1.0" encoding="UTF-8" standalone="no"?>
<!-- Created with Inkscape (http://www.inkscape.org/) -->

<svg
   width="78.714882mm"
   height="65.999466mm"
   viewBox="0 0 78.714882 65.999466"
   version="1.1"
   id="svg5"
   xmlns="http://www.w3.org/2000/svg"
   xmlns:svg="http://www.w3.org/2000/svg">
  <defs
     id="defs2" />
  <g
     id="layer1"
     transform="translate(-10.854247,-101.36871)">
    <g
       id="g25">
      <g
         id="g49"
         transform="translate(-104.19372,7.0548055)">
        <path
           style="fill:#999999;fill-opacity:0.34902;stroke:#2b0000;stroke-width:1;stroke-dasharray:none"
           d="m 147.79762,102.40584 c -5.13025,7.2841 -8.58783,18.66208 -4.71082,23.52435 4.05076,5.08015 11.36767,8.52088 17.83251,7.87088 8.71917,-0.87665 18.92241,-6.80215 21.45616,-15.19099 1.76409,-5.84064 -2.72227,-12.35581 -6.58596,-17.07778 -2.61525,-3.196192 -6.33207,-6.324143 -10.44835,-6.657945 -6.34313,-0.514384 -13.87901,2.328489 -17.54354,7.531485 z"
           id="path23" />
        <path
           style="fill:#999999;fill-opacity:0.34902;stroke:#2b0000;stroke-width:1;stroke-dasharray:none"
           d="m 150.83747,108.77201 c 2.92783,0.20408 5.17629,0.78076 7.06104,-1.52821 0.32103,-0.39327 0.10112,-0.64825 0.60922,-0.95105"
           id="path24" />
        <path
           style="fill:#999999;fill-opacity:0.34902;stroke:#2b0000;stroke-width:1;stroke-dasharray:none"
           d="m 167.56623,116.74092 c 2.37644,0.46544 3.21726,-0.18916 4.87858,-1.17922"
           id="path25" />
        <path
           style="fill:#999999;fill-opacity:0.34902;stroke:#2b0000;stroke-width:1;stroke-dasharray:none"
           d="m 149.37146,120.25159 c 0.38988,0.6542 0.81545,1.28843 1.16963,1.96263 0.73409,1.39764 0.51987,2.13417 2.2162,2.40323 0.19985,0.0317 0.41068,0.0825 0.60627,0.0307 0.32826,-0.087 0.8374,-0.49905 1.15707,-0.68955"
           id="path26" />
        <path
           style="fill:#999999;fill-opacity:0.34902;stroke:#2b0000;stroke-width:1;stroke-dasharray:none"
           d="m 167.87692,106.85748 c 0.43532,-0.51849 1.24545,-0.55397 1.71833,-1.02404 0.29804,-0.29627 1.61866,-3.20383 1.3556,-3.64523"
           id="path27" />
        <path
           style="fill:#999999;fill-opacity:0.34902;stroke:#2b0000;stroke-width:1;stroke-dasharray:none"
           d="m 158.40304,117.96817 c 0.97998,1.00003 1.30267,2.57251 2.18197,3.66136 1.46459,1.8136 3.89033,2.83212 6.17091,2.79041 0.64288,-0.0117 1.07095,0.14577 1.62265,-0.18302"
           id="path28" />
      </g>
      <g
         id="g22"
         transform="translate(-100.54167)">
        <path
           style="fill:#000000;stroke:#000000;stroke-width:0;stroke-dasharray:none;stroke-dashoffset:0;stroke-opacity:1"
           d="m 117.92224,120.75133 c -2.90989,0.4562 -6.80367,3.6955 -6.51072,7.28861 0.3366,4.12829 5.31671,6.17887 8.68317,6.37697 2.22011,0.13064 5.02907,-1.06846 6.0261,-3.51392 0.67013,-1.64368 0.0127,-3.9366 -0.88198,-5.40939 -1.65071,-2.71725 -4.58241,-5.17092 -7.31657,-4.74227 z"
           id="path2" />
        <path
           style="fill:none;stroke:#000000;stroke-width:1;stroke-dasharray:none;stroke-dashoffset:0;stroke-opacity:1"
           d="m 122.82338,134.42654 c -0.41022,3.35415 -1.19058,6.46968 1.08726,9.48008 2.27784,3.0104 3.80863,4.65429 4.85842,6.76954 1.25549,2.52972 0.60364,0.53627 0.59163,0.59163 -0.0102,0.0469 -0.096,0 -0.14395,0"
           id="path3" />
        <path
           style="fill:none;stroke:#000000;stroke-width:1;stroke-dasharray:none;stroke-dashoffset:0;stroke-opacity:1"
           d="m 129.21674,151.26779 c -2.17597,5.36759 -2.75594,9.22691 -2.95879,13.87017 -0.056,0.0288 -0.12586,0 -0.18879,0"
           id="path18" />
        <path
           style="fill:none;stroke:#000000;stroke-width:1;stroke-dasharray:none;stroke-dashoffset:0;stroke-opacity:1"
           d="m 129.36069,151.2678 c 4.02546,-2.02908 8.32224,-2.77499 12.04059,-1.74462 3.38977,0.93932 2.59198,8.79971 0.91311,11.44129 -0.0891,0.11887 0.15397,0.16855 -0.11832,0.23665 -0.11473,0.0287 -0.23653,0 -0.3548,0"
           id="path19" />
        <path
           style="fill:none;stroke:#000000;stroke-width:1;stroke-dasharray:none;stroke-dashoffset:0;stroke-opacity:1"
           d="m 126.06916,165.13796 c -0.0401,0.56465 -0.66074,1.52521 -0.1204,1.69394 0.7604,0.23745 1.41385,-0.73627 2.14027,-1.06321 0.93183,-0.41938 1.84526,-0.90758 2.83164,-1.17449 2.01332,-0.54481 4.09306,-0.80641 6.1309,-1.2508 4.51409,-0.98439 9.39016,-1.95648 13.57707,-4.00489 1.05211,-0.51473 1.76922,-1.20843 2.6842,-1.83986 0.44927,-0.31005 0.86252,-0.72904 1.39166,-0.86317 0.25906,-0.0657 0.97546,-0.0418 1.12197,-0.28527 0.18877,-0.31376 0.17643,-0.71452 0.32387,-1.04971 1.33681,-3.03913 0.42322,0.19858 1.71473,-4.6078 0.54164,-2.01574 1.09478,-4.03381 1.46463,-6.08801 0.12195,-0.67734 -0.17736,-2.70203 0.61844,-3.05012 9.46145,-4.13857 3.98248,-0.42195 15.03142,-7.44289 4.77939,-3.03701 2.53458,-0.52381 7.08114,-3.89942 8.37823,-6.22047 5.35015,-3.13019 7.66329,-5.95426"
           id="path20" />
        <path
           style="fill:none;stroke:#000000;stroke-width:1;stroke-dasharray:none;stroke-dashoffset:0;stroke-opacity:1"
           d="m 123.02971,142.43449 14.23538,-2.40371 3.03763,-6.62565"
           id="path21" />
        <path
           style="fill:none;stroke:#000000;stroke-width:1;stroke-dasharray:none;stroke-dashoffset:0;stroke-opacity:1"
           d="m 123.02971,142.43449 8.87782,-11.26336 6.23022,-4.6491"
           id="path22" />
      </g>
    </g>
  </g>
</svg>
