<?xml version="1.0" encoding="UTF-8" standalone="no"?>
<!-- Created with Inkscape (http://www.inkscape.org/) -->

<svg
   width="78.714882mm"
   height="64.656128mm"
   viewBox="0 0 78.714882 64.656128"
   version="1.1"
   id="svg5"
   xmlns="http://www.w3.org/2000/svg"
   xmlns:svg="http://www.w3.org/2000/svg">
  <defs
     id="defs2" />
  <g
     id="layer1"
     transform="translate(-111.39592,-102.71205)">
    <g
       id="g65">
      <g
         id="g62"
         transform="rotate(33.822652,153.86747,117.80298)">
        <path
           style="fill:#999999;fill-opacity:0.34902;stroke:#2b0000;stroke-width:1;stroke-dasharray:none"
           d="m 148.7079,104.32214 c -8.13599,3.63087 -16.93093,11.63478 -16.08964,17.79636 0.879,6.4377 5.40297,13.13915 11.28918,15.89036 7.93877,3.71058 19.73707,3.84383 26.20816,-2.06528 4.50542,-4.11415 3.98687,-12.00757 3.08521,-18.04181 -0.61032,-4.08444 -2.20186,-8.6742 -5.56696,-11.06821 -5.18557,-3.68914 -13.11444,-5.10492 -18.92595,-2.51142 z"
           id="path50" />
        <path
           style="fill:#999999;fill-opacity:0.34902;stroke:#2b0000;stroke-width:1;stroke-dasharray:none"
           d="m 148.06014,111.34704 c 2.4106,1.67417 4.04686,3.32062 6.84795,2.30203 0.4771,-0.17349 0.41873,-0.5051 1.01021,-0.5051"
           id="path51" />
        <path
           style="fill:#999999;fill-opacity:0.34902;stroke:#2b0000;stroke-width:1;stroke-dasharray:none"
           d="m 158.35099,126.75656 c 1.80315,1.61641 2.86054,1.48454 4.7945,1.48454"
           id="path52" />
        <path
           style="fill:#999999;fill-opacity:0.34902;stroke:#2b0000;stroke-width:1;stroke-dasharray:none"
           d="m 140.92401,120.45778 c 0,0.76157 0.0409,1.52425 0,2.28473 -0.0849,1.57641 -0.64598,2.09944 0.67347,3.19898 0.15545,0.12954 0.31053,0.28115 0.50509,0.33674 0.32652,0.0933 0.97482,0 1.34695,0"
           id="path53" />
        <path
           style="fill:#999999;fill-opacity:0.34902;stroke:#2b0000;stroke-width:1;stroke-dasharray:none"
           d="m 163.67756,118.4255 c 0.63938,-0.22254 1.35346,0.16172 2.00032,0 0.4077,-0.10193 3.03062,-1.92352 3.03062,-2.43736"
           id="path54" />
        <path
           style="fill:#999999;fill-opacity:0.34902;stroke:#2b0000;stroke-width:1;stroke-dasharray:none"
           d="m 149.85131,123.11985 c 0.32988,1.36073 -0.19793,2.87673 0,4.26222 0.32967,2.3077 1.89202,4.42445 3.87245,5.55614 0.55826,0.31901 0.84535,0.67347 1.48759,0.67347"
           id="path55" />
      </g>
      <path
         style="fill:#000000;stroke:#000000;stroke-width:0;stroke-dasharray:none;stroke-dashoffset:0;stroke-opacity:1"
         d="m 117.92224,120.75133 c -2.90989,0.4562 -6.80367,3.6955 -6.51072,7.28861 0.3366,4.12829 5.31671,6.17887 8.68317,6.37697 2.22011,0.13064 5.02907,-1.06846 6.0261,-3.51392 0.67013,-1.64368 0.0127,-3.9366 -0.88198,-5.40939 -1.65071,-2.71725 -4.58241,-5.17092 -7.31657,-4.74227 z"
         id="path56" />
      <path
         style="fill:none;stroke:#000000;stroke-width:1;stroke-dasharray:none;stroke-dashoffset:0;stroke-opacity:1"
         d="m 122.82338,134.42654 c 0,1.81425 0,3.62849 0,5.44274 0,0.55766 -0.0915,1.22568 0,1.77487 0.19436,1.16611 1.1266,2.37142 1.65945,3.43624 0.44575,0.89079 -0.007,0.31906 0.59744,1.19245 0.22714,0.32805 0.49674,0.62572 0.71822,0.95762 0.0979,0.14672 0.13084,0.33217 0.23665,0.4733 0.1345,0.17938 0.34495,0.29353 0.47514,0.47606 0.0726,0.10178 0.0457,0.25413 0.11833,0.3559 0.55427,0.77684 1.46245,1.46245 2.14045,2.14044 0.0173,0.0173 0.60362,0.53627 0.59163,0.59163 -0.0102,0.0469 -0.096,0 -0.14395,0"
         id="path57" />
      <path
         style="fill:none;stroke:#000000;stroke-width:1;stroke-dasharray:none;stroke-dashoffset:0;stroke-opacity:1"
         d="m 129.21674,151.26779 c -1.03188,2.08464 -1.91086,4.52055 -2.36717,6.80207 -0.11075,0.55375 -0.31474,1.09327 -0.35497,1.65655 -0.0281,0.39342 0.0392,0.79079 0,1.18325 -0.04,0.40024 -0.19852,0.78284 -0.23665,1.18325 -0.0675,0.70925 0,1.51567 0,2.2438 0,0.24258 0.0439,0.77866 0,0.80125 -0.056,0.0288 -0.12586,0 -0.18879,0"
         id="path60" />
      <path
         style="fill:none;stroke:#000000;stroke-width:1;stroke-dasharray:none;stroke-dashoffset:0;stroke-opacity:1"
         d="m 129.36069,151.26779 c 1.42144,-0.54056 2.84289,-1.08111 4.26433,-1.62167 1.03192,-0.31969 2.08367,-0.58129 3.09577,-0.95907 0.38689,-0.14441 0.70292,-0.44036 1.08342,-0.60087 0.99291,-0.41884 2.11641,-0.59444 3.12377,-0.9722 0.16516,-0.0619 0.30124,-0.19783 0.4733,-0.23665 0.15376,-0.0347 0.14033,0.28229 0.21161,0.42287 0.2539,0.50082 0.62469,1.02927 0.82827,1.53823 0.15087,0.37717 0.0651,0.48555 0.23665,0.82827 0.10337,0.20655 0.27072,0.3797 0.35662,0.5941 0.51726,1.29088 0.35822,3.28505 0.35822,4.6456 0,0.74631 0.14346,1.66197 -0.11833,2.37651 -0.26102,0.71244 -0.54309,1.00909 -0.95993,1.56488 -0.0891,0.11887 0.15397,0.16855 -0.11832,0.23665 -0.11473,0.0287 -0.23653,0 -0.3548,0"
         id="path61" />
      <path
         style="fill:none;stroke:#000000;stroke-width:1;stroke-dasharray:none;stroke-dashoffset:0;stroke-opacity:1"
         d="m 126.06916,165.13796 c -0.0401,0.56465 -0.66074,1.52521 -0.1204,1.69394 0.7604,0.23745 1.41385,-0.73627 2.14027,-1.06321 0.93183,-0.41938 1.84526,-0.90758 2.83164,-1.17449 2.01332,-0.54481 4.09306,-0.80641 6.1309,-1.2508 4.51409,-0.98439 9.39016,-1.95648 13.57707,-4.00489 1.05211,-0.51473 1.76922,-1.20843 2.6842,-1.83986 0.44927,-0.31005 0.86252,-0.72904 1.39166,-0.86317 0.25906,-0.0657 0.97546,-0.0418 1.12197,-0.28527 0.18877,-0.31376 0.17643,-0.71452 0.32387,-1.04971 1.33681,-3.03913 0.42322,0.19858 1.71473,-4.6078 0.54164,-2.01574 1.09478,-4.03381 1.46463,-6.08801 0.12195,-0.67734 -0.17736,-2.70203 0.61844,-3.05012 9.46145,-4.13857 3.98248,-0.42195 15.03142,-7.44289 4.77939,-3.03701 2.53458,-0.52381 7.08114,-3.89942 8.37823,-6.22047 5.35015,-3.13019 7.66329,-5.95426"
         id="path62" />
      <path
         style="fill:none;stroke:#000000;stroke-width:1;stroke-dasharray:none;stroke-dashoffset:0;stroke-opacity:1"
         d="m 122.63904,141.07545 13.91422,-4.60563 3.03763,-6.62565"
         id="path63-6" />
      <path
         style="fill:none;stroke:#000000;stroke-width:1;stroke-dasharray:none;stroke-dashoffset:0;stroke-opacity:1"
         d="m 122.63904,141.07545 7.22035,-13.51098 3.51583,0.0159"
         id="path64-7" />
    </g>
  </g>
</svg>
