<?xml version="1.0" encoding="UTF-8" standalone="no"?>
<!-- Created with Inkscape (http://www.inkscape.org/) -->

<svg
   width="78.714882mm"
   height="67.895065mm"
   viewBox="0 0 78.714882 67.895065"
   version="1.1"
   id="svg5"
   xmlns="http://www.w3.org/2000/svg"
   xmlns:svg="http://www.w3.org/2000/svg">
  <defs
     id="defs2" />
  <g
     id="layer1"
     transform="translate(-111.39592,-99.473118)">
    <g
       id="g24">
      <g
         id="g23"
         transform="translate(76.804659,59.524314)">
        <path
           style="fill:#999999;fill-opacity:0.34902;stroke:#2b0000;stroke-width:1;stroke-dasharray:none"
           d="m 78.390331,41.864885 c -6.97375,3.112186 -16.94979,11.496716 -16.08964,17.796356 0.86015,6.29964 4.37669,12.65946 11.28918,15.89036 6.91249,3.2309 20.7199,2.94635 26.20816,-2.06528 5.488259,-5.01163 3.841199,-12.98247 3.085209,-18.04181 -0.75599,-5.05934 -1.29163,-8.02664 -5.566959,-11.06821 -4.27534,-3.041573 -11.9522,-5.623599 -18.92595,-2.511416 z"
           id="path12" />
        <path
           style="fill:#999999;fill-opacity:0.34902;stroke:#2b0000;stroke-width:1;stroke-dasharray:none"
           d="m 77.742571,48.889781 c 2.4106,1.67417 5.20885,2.89807 6.84795,2.30203 1.6391,-0.59604 0.41873,-0.5051 1.01021,-0.5051"
           id="path13" />
        <path
           style="fill:#999999;fill-opacity:0.34902;stroke:#2b0000;stroke-width:1;stroke-dasharray:none"
           d="m 89.095531,63.119091 c 7.72611,4.23525 6.18297,-1.11033 8.11693,-1.11033"
           id="path14" />
        <path
           style="fill:#999999;fill-opacity:0.34902;stroke:#2b0000;stroke-width:1;stroke-dasharray:none"
           d="m 70.606441,58.000521 c 0,0.76157 0.0629,1.11628 0,2.28473 -0.0629,1.16845 -0.064,2.58444 0.67347,3.19898 0.73745,0.61454 0.24455,0.26229 0.50509,0.33674 0.26054,0.0744 0.97482,0 1.34695,0"
           id="path15" />
        <path
           style="fill:#999999;fill-opacity:0.34902;stroke:#2b0000;stroke-width:1;stroke-dasharray:none"
           d="m 93.359991,55.968241 c 0.63938,-0.22254 1.47304,0.13183 2.00032,0 0.52728,-0.13183 3.03062,-1.92352 3.03062,-2.43736"
           id="path16" />
        <path
           style="fill:#999999;fill-opacity:0.34902;stroke:#2b0000;stroke-width:1;stroke-dasharray:none"
           d="m 79.533741,60.662591 c 0.32988,1.36073 -0.2638,2.41562 0,4.26222 0.2638,1.8466 2.6031,4.83079 3.87245,5.55614 1.26934,0.72535 6.67974,1.17347 7.32198,1.17347"
           id="path17" />
      </g>
      <g
         id="g65">
        <path
           style="fill:#000000;stroke:#000000;stroke-width:0;stroke-dasharray:none;stroke-dashoffset:0;stroke-opacity:1"
           d="m 117.92224,120.75133 c -2.90989,0.4562 -6.80367,3.6955 -6.51072,7.28861 0.3366,4.12829 5.31671,6.17887 8.68317,6.37697 2.22011,0.13064 5.02907,-1.06846 6.0261,-3.51392 0.67013,-1.64368 0.0127,-3.9366 -0.88198,-5.40939 -1.65071,-2.71725 -4.58241,-5.17092 -7.31657,-4.74227 z"
           id="path56" />
        <path
           style="fill:none;stroke:#000000;stroke-width:1;stroke-dasharray:none;stroke-dashoffset:0;stroke-opacity:1"
           d="m 122.82338,134.42654 c 3.57212,3.29631 4.05173,5.34995 4.96439,7.77784 0.92177,2.4521 1.46748,4.20053 0.98129,8.47178 -0.003,0.0243 0.60364,0.53627 0.59163,0.59163 -0.0102,0.0469 -0.096,0 -0.14395,0"
           id="path57" />
        <path
           style="fill:none;stroke:#000000;stroke-width:1;stroke-dasharray:none;stroke-dashoffset:0;stroke-opacity:1"
           d="m 129.21674,151.26779 c -2.17597,5.36759 -2.75594,9.22691 -2.95879,13.87017 -0.056,0.0288 -0.12586,0 -0.18879,0"
           id="path60" />
        <path
           style="fill:none;stroke:#000000;stroke-width:1;stroke-dasharray:none;stroke-dashoffset:0;stroke-opacity:1"
           d="m 129.36069,151.2678 c 4.02546,-2.02908 8.32224,-2.77499 12.04059,-1.74462 3.38977,0.93932 2.59198,8.79971 0.91311,11.44129 -0.0891,0.11887 0.15397,0.16855 -0.11832,0.23665 -0.11473,0.0287 -0.23653,0 -0.3548,0"
           id="path61" />
        <path
           style="fill:none;stroke:#000000;stroke-width:1;stroke-dasharray:none;stroke-dashoffset:0;stroke-opacity:1"
           d="m 126.06916,165.13796 c -0.0401,0.56465 -0.66074,1.52521 -0.1204,1.69394 0.7604,0.23745 1.41385,-0.73627 2.14027,-1.06321 0.93183,-0.41938 1.84526,-0.90758 2.83164,-1.17449 2.01332,-0.54481 4.09306,-0.80641 6.1309,-1.2508 4.51409,-0.98439 9.39016,-1.95648 13.57707,-4.00489 1.05211,-0.51473 1.76922,-1.20843 2.6842,-1.83986 0.44927,-0.31005 0.86252,-0.72904 1.39166,-0.86317 0.25906,-0.0657 0.97546,-0.0418 1.12197,-0.28527 0.18877,-0.31376 0.17643,-0.71452 0.32387,-1.04971 1.33681,-3.03913 0.42322,0.19858 1.71473,-4.6078 0.54164,-2.01574 1.09478,-4.03381 1.46463,-6.08801 0.12195,-0.67734 -0.17736,-2.70203 0.61844,-3.05012 9.46145,-4.13857 3.98248,-0.42195 15.03142,-7.44289 4.77939,-3.03701 2.53458,-0.52381 7.08114,-3.89942 8.37823,-6.22047 5.35015,-3.13019 7.66329,-5.95426"
           id="path62" />
        <path
           style="fill:none;stroke:#000000;stroke-width:1;stroke-dasharray:none;stroke-dashoffset:0;stroke-opacity:1"
           d="m 127.40157,140.01711 13.91422,-4.60563 3.03763,-6.62565"
           id="path63-6" />
        <path
           style="fill:none;stroke:#000000;stroke-width:1;stroke-dasharray:none;stroke-dashoffset:0;stroke-opacity:1"
           d="m 127.40157,140.01711 10.09517,-8.33838 3.35914,-6.34135"
           id="path64-7" />
      </g>
    </g>
  </g>
</svg>
